<svg width="441" height="90" viewBox="0 0 441 90" fill="none" xmlns="http://www.w3.org/2000/svg">
<rect width="441" height="90" fill="#1E1E1E"/>
<path fill-rule="evenodd" clip-rule="evenodd" d="M0 45V90H220.5H441V45V0H220.5H0V45ZM439.5 45.5V88.5H221H2.5L2.239 46.5C2.095 23.4 2.194 3.937 2.458 3.248C2.842 2.249 47.094 2.047 221.219 2.248L439.5 2.5V45.5ZM6 45.5V85H221H436V45.5V6H221H6V45.5ZM48.951 19.083C51.728 19.678 54 20.604 54 21.14C54 21.676 53.493 25.186 52.873 28.941L51.745 35.767L48.123 33.292C40.728 28.24 29.964 32.29 26.47 41.44C21.585 54.231 32.451 62.543 45.37 55.898L49.24 53.907L48.606 56.703C48.028 59.257 48.082 59.327 49.234 57.5C49.928 56.4 54.772 47.625 59.998 38L69.5 20.5L77.058 20.211L84.616 19.923L89.133 40.711L93.651 61.5L94.773 55C95.39 51.425 96.889 42.088 98.104 34.25L100.313 20H113.206C130.977 20 135.017 22.314 134.984 32.473C134.962 39.151 131.796 44.666 126.328 47.55L122.157 49.751L125.995 55.992C128.106 59.425 130.251 62.651 130.761 63.161C131.33 63.73 132.57 58.383 133.975 49.294C135.234 41.157 136.779 31.35 137.411 27.5L138.559 20.5L153.193 20.224C166.761 19.968 167.8 20.077 167.468 21.724C167.271 22.701 166.84 25.188 166.51 27.25L165.909 31H157.955C153.58 31 150 31.394 150 31.875C150 32.356 149.719 34.156 149.375 35.875L148.75 39H156.006H163.262L162.642 42.75C162.301 44.813 162.017 47.288 162.011 48.25C162.002 49.758 160.977 50 154.611 50H147.223L146.649 53.25C146.333 55.037 145.562 59.538 144.935 63.25L143.795 70H130.878H117.961L113.838 61C111.57 56.05 109.415 52 109.049 52C108.682 52 107.809 56.05 107.109 61L105.835 70H93.56H81.284L80.388 65.75L79.491 61.5H70.515H61.539L59.272 65.61L57.005 69.719L42.846 70.438L28.687 71.156L23.127 68.313C18.96 66.182 16.806 64.24 14.533 60.562C5.81 46.45 16.061 25.15 34.324 19.439C39.582 17.795 42.604 17.722 48.951 19.083ZM286.768 19.548C292.86 22.093 299.495 29.939 297.335 32.043C296.383 32.97 285.831 37.224 285.567 36.787C281.577 30.162 278.713 28.456 273.29 29.473C262.569 31.485 255.759 48.807 262.527 56.85C266.852 61.99 274.533 62.195 279.427 57.3C283.431 53.296 282.807 52 276.875 52H271.75L272.375 48.875C272.719 47.156 273 44.92 273 43.905C273 42.222 274.125 42.035 285.75 41.78L298.499 41.5L300.104 31.229C300.987 25.579 301.938 20.729 302.216 20.45C302.495 20.171 308.978 20.069 316.622 20.222L330.521 20.5L329.684 25.75L328.847 31H320.924C314.049 31 312.998 31.232 312.986 32.75C312.979 33.712 312.701 35.513 312.37 36.75C311.783 38.939 311.974 39 319.358 39H326.95L326.409 42.25C325.018 50.61 325.721 50 317.481 50C311.8 50 310 50.331 310 51.375C310 52.131 309.719 54.156 309.375 55.875L308.75 59H316.375C324.802 59 324.592 58.783 323.358 66.25L322.738 70H308.29H293.841L294.383 67.25C294.681 65.737 295.219 62.25 295.578 59.5L296.232 54.5L293.297 58.797C281.138 76.597 253.02 75.74 246.962 57.384C245.227 52.127 246.222 41.454 248.956 36C252.963 28.006 260.609 21.497 269 18.935C273.341 17.61 282.921 17.94 286.768 19.548ZM201.962 41.25C204.439 52.663 206.747 62 207.09 62C207.769 62 223.324 44.4 223.778 43.118C223.931 42.687 221.39 37.308 218.132 31.167L212.209 20L220.354 20.004L228.5 20.009L231 26C232.375 29.295 233.725 31.98 234 31.967C234.275 31.953 236.451 29.255 238.834 25.971L243.169 20H250.562H257.955L253.657 23.962C251.294 26.14 248.09 30.303 246.538 33.212C244.985 36.12 242.871 39.438 241.839 40.584C240.099 42.517 240.073 42.931 241.482 46.302C242.317 48.301 243 51.54 243 53.5C243 57.946 244.883 62.534 248.437 66.75L251.178 70H244.811H238.444L234.405 61.852L230.366 53.704L223.441 61.852L216.515 70H205.316H194.118L193.279 65.75L192.441 61.5L183.468 61.216L174.496 60.932L172.019 65.466L169.542 70H162.771C159.047 70 156 69.745 156 69.433C156 69.121 161.963 57.862 169.25 44.412L182.5 19.96L189.978 20.23L197.457 20.5L201.962 41.25ZM354.688 35.342C362.277 47.549 364.004 49.769 364.413 47.842C364.687 46.554 365.626 40.775 366.5 35C369.009 18.422 368.06 20 375.519 20C379.084 20 382 20.174 382 20.386C382 21.273 374.934 65.692 374.458 67.795C373.972 69.945 373.519 70.071 367.286 69.795L360.632 69.5L351.571 54.795C346.588 46.707 342.243 40.407 341.916 40.795C341.59 41.183 340.791 45.1 340.141 49.5C339.492 53.9 338.473 60.313 337.877 63.75L336.795 70H330.397C326.879 70 324 69.571 324 69.046C324 67.471 331.07 22.604 331.538 21.204C331.85 20.273 333.87 19.991 338.716 20.204L345.46 20.5L354.688 35.342ZM395.484 27.25C394.808 31.238 393.012 42.487 391.493 52.25L388.73 70H382.365C376.966 70 376.001 69.734 376.009 68.25C376.014 67.287 377.582 56.6 379.494 44.5C381.407 32.4 382.977 21.938 382.985 21.25C382.996 20.373 385.046 20 389.856 20H396.712L395.484 27.25ZM426.458 23.75C425.204 31.184 425.565 30.892 417.21 31.209L409.528 31.5L408.922 35.25L408.315 39H415.719H423.123L422.434 43.75C422.055 46.363 421.551 48.837 421.314 49.25C421.076 49.663 417.744 50 413.91 50C406.52 50 406.617 49.933 405.612 55.75L405.05 59H413.092C420.268 59 421.083 59.189 420.655 60.75C420.391 61.712 419.89 64.188 419.542 66.25L418.909 70H404.436H389.962L390.486 67.75C390.983 65.614 398 21.462 398 20.471C398 20.212 404.545 20 412.545 20H427.091L426.458 23.75ZM111.488 33.75C111.156 35.813 110.677 38.513 110.423 39.75C110.039 41.622 110.396 42 112.547 42C115.349 42 119.061 40.359 120.235 38.6C121.382 36.882 121.126 32.526 119.8 31.2C119.14 30.54 117.135 30 115.345 30C112.358 30 112.041 30.308 111.488 33.75ZM70.732 43.49L67.016 51H72.123H77.23L76.523 45.338C75.271 35.319 74.843 35.182 70.732 43.49ZM183.677 42.725C181.655 46.699 180 50.186 180 50.475C180 50.764 182.25 51 185 51C190.717 51 190.68 51.097 188.633 41.5L187.354 35.5L183.677 42.725Z" fill="white"/>
</svg>
