<svg width="31" height="29" viewBox="0 0 31 29" fill="none" xmlns="http://www.w3.org/2000/svg">
<path d="M30.0122 11.2061L15.5125 0.129566C15.2856 -0.0431888 14.9729 -0.0431888 14.7472 0.129566L0.247519 11.2061C0.0344569 11.37 -0.0525412 11.6512 0.0319155 11.9059L5.57077 28.5679C5.65653 28.8263 5.89731 28.9991 6.16965 28.9991H24.0925C24.3636 28.9991 24.6057 28.8251 24.6914 28.5679L30.2302 11.9059C30.3123 11.6499 30.2253 11.37 30.0122 11.2061Z" fill="url(#paint0_linear_10_2)"/>
<path d="M12.2749 16.1895L14.0119 15.033L15.1683 13.296L16.3248 15.033L18.0617 16.1895L16.3248 17.3459L15.1683 19.0829L14.0119 17.3459L12.2749 16.1895Z" fill="white" fill-opacity="0.61"/>
<defs>
<linearGradient id="paint0_linear_10_2" x1="15.1304" y1="0" x2="15.1304" y2="28.9991" gradientUnits="userSpaceOnUse">
<stop stop-color="#E688AA"/>
<stop offset="1" stop-color="#BD6885"/>
</linearGradient>
</defs>
</svg>
