<svg width="31" height="29" viewBox="0 0 31 29" fill="none" xmlns="http://www.w3.org/2000/svg">
<path d="M30.0122 11.2061L15.5125 0.129566C15.2856 -0.0431888 14.9729 -0.0431888 14.7472 0.129566L0.247519 11.2061C0.0344569 11.37 -0.0525412 11.6512 0.0319155 11.9059L5.57077 28.5679C5.65653 28.8263 5.89731 28.9991 6.16965 28.9991H24.0925C24.3636 28.9991 24.6057 28.8251 24.6914 28.5679L30.2302 11.9059C30.3123 11.6499 30.2253 11.37 30.0122 11.2061Z" fill="url(#paint0_linear_10_10)"/>
<path d="M8.89453 16.2364L10.6315 15.08L11.7879 13.343L12.9444 15.08L14.6813 16.2364L12.9444 17.3928L11.7879 19.1298L10.6315 17.3928L8.89453 16.2364Z" fill="white" fill-opacity="0.61"/>
<path d="M15.6548 16.2364L17.3918 15.08L18.5482 13.343L19.7046 15.08L21.4416 16.2364L19.7046 17.3928L18.5482 19.1298L17.3917 17.3928L15.6548 16.2364Z" fill="white" fill-opacity="0.61"/>
<defs>
<linearGradient id="paint0_linear_10_10" x1="15.1304" y1="0" x2="15.1304" y2="28.9991" gradientUnits="userSpaceOnUse">
<stop stop-color="#B5C32E"/>
<stop offset="1" stop-color="#97A317"/>
</linearGradient>
</defs>
</svg>
