<svg width="31" height="29" viewBox="0 0 31 29" fill="none" xmlns="http://www.w3.org/2000/svg">
<path d="M30.0122 11.2061L15.5125 0.129566C15.2856 -0.0431888 14.9729 -0.0431888 14.7472 0.129566L0.247519 11.2061C0.0344569 11.37 -0.0525412 11.6512 0.0319155 11.9059L5.57077 28.5679C5.65653 28.8263 5.89731 28.9991 6.16965 28.9991H24.0925C24.3636 28.9991 24.6057 28.8251 24.6914 28.5679L30.2302 11.9059C30.3123 11.6499 30.2253 11.37 30.0122 11.2061Z" fill="url(#paint0_linear_10_18)"/>
<path d="M5.51514 16.2366L7.25214 15.0802L8.40855 13.3432L9.56499 15.0802L11.302 16.2366L9.56499 17.3931L8.40855 19.1301L7.2521 17.3931L5.51514 16.2366Z" fill="white" fill-opacity="0.61"/>
<path d="M12.2754 16.2366L14.0124 15.0802L15.1688 13.3432L16.3252 15.0802L18.0622 16.2366L16.3252 17.3931L15.1688 19.1301L14.0124 17.3931L12.2754 16.2366Z" fill="white" fill-opacity="0.61"/>
<path d="M19.0361 16.2366L20.7731 15.0802L21.9295 13.3432L23.086 15.0802L24.8229 16.2366L23.086 17.3931L21.9295 19.1301L20.7731 17.3931L19.0361 16.2366Z" fill="white" fill-opacity="0.61"/>
<defs>
<linearGradient id="paint0_linear_10_18" x1="5.33726" y1="12.8094" x2="24.7293" y2="28.0206" gradientUnits="userSpaceOnUse">
<stop stop-color="#F1AD48"/>
<stop offset="1" stop-color="#FA8731"/>
</linearGradient>
</defs>
</svg>
